# Blender 4.2.2 LTS
# www.blender.org
mtllib arrow.mtl
o Cube
v 0.197582 0.197582 0.452682
v 0.197582 -0.197582 0.452682
v 0.000000 0.000000 0.952682
v -0.197582 0.197582 0.452682
v -0.197582 -0.197582 0.452682
v 0.105782 -0.105782 0.452682
v -0.105782 -0.105782 0.452682
v 0.105782 0.105782 0.452682
v -0.105782 0.105782 0.452682
v 0.105782 -0.105782 -0.736849
v -0.105782 -0.105782 -0.736849
v 0.105782 0.105782 -0.736849
v -0.105782 0.105782 -0.736849
vn -0.0000 0.9300 0.3675
vn -0.9300 -0.0000 0.3675
vn -0.0000 -0.9300 0.3675
vn 0.9300 -0.0000 0.3675
vn -0.0000 -0.0000 -1.0000
vn -0.0000 1.0000 -0.0000
vn 1.0000 -0.0000 -0.0000
vn -1.0000 -0.0000 -0.0000
vn -0.0000 -1.0000 -0.0000
vt 0.758543 -0.000000
vt 1.000000 -0.000000
vt 0.879272 0.322704
vt 0.637815 -0.000000
vt 0.758543 0.322704
vt 0.517087 0.322704
vt 0.758543 0.968113
vt 0.517087 0.968113
vt 0.637815 0.645409
vt 0.758543 0.645409
vt 0.517087 0.645409
vt 0.637815 0.322704
vt 0.758543 0.564161
vt 0.758543 0.322704
vt 0.814636 0.378797
vt 0.814636 0.508069
vt 0.387815 0.714007
vt 0.258543 0.714007
vt 0.258543 0.000000
vt 0.387815 0.000000
vt 0.814636 0.564161
vt 0.814636 0.322704
vt 0.870728 0.378797
vt 0.870728 0.508069
vt 0.814636 0.564161
vt 0.814636 0.805618
vt 0.758543 0.749525
vt 0.758543 0.620253
vt 0.870728 0.564161
vt 0.870728 0.805618
vt 0.814636 0.749525
vt 0.814636 0.620253
vt 0.129272 0.843279
vt 0.000000 0.843279
vt 0.000000 0.714007
vt 0.129272 0.714007
vt 0.000000 0.000000
vt 0.129272 0.000000
vt 0.129272 0.714007
vt 0.000000 0.714007
vt 0.258543 0.714007
vt 0.129272 0.714007
vt 0.129272 0.000000
vt 0.258543 0.000000
vt 0.387815 0.000000
vt 0.517087 0.000000
vt 0.517087 0.714007
vt 0.387815 0.714007
s 0
usemtl Material
f 1/1/1 4/2/1 3/3/1
f 3/4/2 4/5/2 5/6/2
f 5/7/3 2/8/3 3/9/3
f 2/10/4 1/11/4 3/12/4
f 4/13/5 1/14/5 8/15/5 9/16/5
f 9/17/6 8/18/6 12/19/6 13/20/6
f 5/21/5 4/22/5 9/23/5 7/24/5
f 2/25/5 5/26/5 7/27/5 6/28/5
f 1/29/5 2/30/5 6/31/5 8/32/5
f 11/33/5 13/34/5 12/35/5 10/36/5
f 8/37/7 6/38/7 10/39/7 12/40/7
f 7/41/8 9/42/8 13/43/8 11/44/8
f 6/45/9 7/46/9 11/47/9 10/48/9
