# Blender 4.3.2
# www.blender.org
o Astronatut
v -0.250000 0.718750 -0.125000
v -0.250000 1.375000 -0.125000
v -0.250000 0.718750 0.125000
v -0.250000 1.375000 0.125000
v 0.250000 0.718750 -0.125000
v 0.250000 1.375000 -0.125000
v 0.250000 0.718750 0.125000
v 0.250000 1.375000 0.125000
v -0.250000 1.375000 0.250000
v 0.250000 1.375000 0.250000
v 0.250000 1.875000 0.250000
v -0.250000 1.875000 0.250000
v -0.250000 1.468750 -0.250000
v -0.250000 1.375000 -0.250000
v 0.250000 1.375000 -0.250000
v 0.250000 1.468750 -0.250000
v -0.218750 1.468750 0.000000
v -0.250000 1.468750 0.000000
v 0.250000 1.875000 0.000000
v -0.250000 1.875000 0.000000
v 0.250000 1.468750 0.000000
v 0.218750 1.468750 0.000000
v -0.218750 1.843750 -0.218750
v 0.218750 1.843750 -0.218750
v -0.218750 1.468750 -0.218750
v 0.218750 1.468750 -0.218750
v 0.218750 1.843750 0.000000
v -0.218750 1.843750 0.000000
v -0.015625 0.375000 -0.093750
v -0.015625 0.718750 -0.093750
v -0.015625 0.375000 0.093750
v -0.015625 0.718750 0.093750
v -0.234375 0.375000 -0.093750
v -0.234375 0.718750 -0.093750
v -0.234375 0.375000 0.093750
v -0.234375 0.718750 0.093750
v -0.015625 0.375000 -0.093750
v -0.015625 0.375000 0.093750
v -0.234375 0.375000 -0.093750
v -0.234375 0.375000 0.093750
v -0.015625 0.000000 0.093750
v -0.015625 0.000000 -0.093750
v -0.015625 0.125000 0.093750
v -0.234375 0.000000 0.093750
v -0.234375 0.125000 0.093750
v -0.234375 0.000000 -0.093750
v -0.234375 0.125000 -0.093750
v -0.015625 0.125000 -0.093750
v -0.234375 0.125000 -0.156250
v -0.234375 0.000000 -0.156250
v -0.015625 0.000000 -0.156250
v -0.015625 0.125000 -0.156250
v -0.250000 1.000000 -0.093750
v -0.250000 1.343750 -0.093750
v -0.250000 1.000000 0.093750
v -0.250000 1.343750 0.093750
v -0.437500 1.000000 -0.093750
v -0.437500 1.343750 -0.093750
v -0.437500 1.000000 0.093750
v -0.437500 1.343750 0.093750
v -0.125000 0.781250 0.125000
v -0.125000 1.312500 0.125000
v -0.125000 0.781250 0.375000
v -0.125000 1.312500 0.375000
v 0.125000 0.781250 0.125000
v 0.125000 1.312500 0.125000
v 0.125000 0.781250 0.375000
v 0.125000 1.312500 0.375000
v -0.093750 1.312500 0.343750
v -0.093750 1.312500 0.156250
v 0.093750 1.312500 0.343750
v 0.093750 1.312500 0.156250
v -0.093750 1.343750 0.343750
v 0.093750 1.343750 0.156250
v -0.093750 1.343750 0.156250
v 0.093750 1.343750 0.343750
v -0.093750 0.781250 0.156250
v -0.093750 0.781250 0.343750
v 0.093750 0.781250 0.343750
v 0.093750 0.781250 0.156250
v -0.093750 0.750000 0.156250
v -0.093750 0.750000 0.343750
v 0.093750 0.750000 0.343750
v 0.093750 0.750000 0.156250
v 0.250000 1.000000 -0.093750
v 0.250000 1.000000 0.093750
v 0.250000 1.343750 -0.093750
v 0.437500 1.000000 -0.093750
v 0.437500 1.000000 0.093750
v 0.437500 1.343750 -0.093750
v 0.437500 1.343750 0.093750
v 0.250000 1.343750 0.093750
v -0.250000 0.656250 -0.093750
v -0.250000 1.000000 -0.093750
v -0.250000 0.656250 0.093750
v -0.250000 1.000000 0.093750
v -0.437500 0.656250 -0.093750
v -0.437500 1.000000 -0.093750
v -0.437500 0.656250 0.093750
v -0.437500 1.000000 0.093750
v 0.250000 0.656250 -0.093750
v 0.250000 0.656250 0.093750
v 0.250000 1.000000 -0.093750
v 0.437500 0.656250 -0.093750
v 0.437500 0.656250 0.093750
v 0.437500 1.000000 -0.093750
v 0.437500 1.000000 0.093750
v 0.250000 1.000000 0.093750
v 0.015625 0.375000 -0.093750
v 0.015625 0.375000 0.093750
v 0.234375 0.375000 -0.093750
v 0.015625 0.125000 -0.093750
v 0.015625 0.000000 -0.093750
v 0.234375 0.125000 -0.093750
v 0.015625 0.125000 0.093750
v 0.015625 0.125000 -0.156250
v 0.015625 0.000000 -0.156250
v 0.234375 0.125000 -0.156250
v 0.234375 0.000000 -0.156250
v 0.234375 0.000000 -0.093750
v 0.234375 0.000000 0.093750
v 0.015625 0.000000 0.093750
v 0.234375 0.125000 0.093750
v 0.234375 0.375000 0.093750
v 0.015625 0.375000 -0.093750
v 0.015625 0.375000 0.093750
v 0.015625 0.718750 -0.093750
v 0.234375 0.375000 -0.093750
v 0.234375 0.375000 0.093750
v 0.234375 0.718750 -0.093750
v 0.234375 0.718750 0.093750
v 0.015625 0.718750 0.093750
vn -0.0000 1.0000 -0.0000
vn -1.0000 -0.0000 -0.0000
vn -0.0000 -0.0000 -1.0000
vn -0.0000 -1.0000 -0.0000
vn 1.0000 -0.0000 -0.0000
vn -0.0000 -0.0000 1.0000
vt 0.500000 0.562500
vt 0.750000 0.687500
vt 0.500000 0.687500
vt 0.625000 0.500000
vt 0.500000 0.171875
vt 0.625000 0.171875
vt 0.250000 0.500000
vt 0.250000 0.171875
vt -0.000308 0.171645
vt 0.249692 0.046645
vt 0.249692 0.171645
vt 0.500000 0.500000
vt 0.250000 0.171875
vt 0.000000 0.500000
vt 0.000000 0.171875
vt 0.484375 0.734375
vt 0.265625 0.546875
vt 0.484375 0.546875
vt 0.265625 0.765625
vt 0.250000 0.875000
vt 0.250000 0.750000
vt 0.500000 0.546875
vt 0.125000 0.796875
vt 0.000000 0.750000
vt 0.125000 0.546875
vt 0.750000 1.000000
vt 0.500000 0.750000
vt 0.750000 0.750000
vt 0.500000 1.000000
vt 0.250000 1.000000
vt 0.750000 0.500000
vt 0.234375 0.734375
vt 0.234375 0.546875
vt 0.265625 0.875000
vt 0.484375 0.765625
vt 0.484375 0.875000
vt 0.125000 0.984375
vt 0.015625 0.796875
vt 0.500000 0.875000
vt 0.265625 0.734375
vt 0.250000 0.546875
vt 0.859375 1.000000
vt 0.953125 0.828125
vt 0.859375 0.828125
vt 0.968750 0.640625
vt 0.859375 0.468750
vt 0.968750 0.468750
vt 0.953125 1.000000
vt 0.750000 0.828125
vt 0.750000 0.843750
vt 0.859375 0.984375
vt 0.953125 0.703125
vt 0.859375 0.703125
vt 0.859375 0.468750
vt 0.750000 0.593750
vt 0.859375 0.593750
vt 0.859375 0.812500
vt 0.859375 0.640625
vt 0.750000 0.656250
vt 0.750000 0.640625
vt 0.875000 0.703125
vt 0.875000 0.640625
vt 0.953125 0.640625
vt 0.859375 0.656250
vt 0.750000 0.703125
vt 0.859375 0.687500
vt 0.937500 0.640625
vt 0.937500 0.703125
vt 1.000000 0.406250
vt 0.906250 0.234375
vt 1.000000 0.234375
vt 0.906250 0.406250
vt 0.812500 0.234375
vt 0.812500 0.406250
vt 0.718750 0.234375
vt 0.718750 0.406250
vt 0.625000 0.234375
vt 0.718750 0.234375
vt 0.625000 0.218750
vt 0.625000 0.234375
vt 0.718750 0.500000
vt 0.187500 0.468750
vt 0.062500 0.203125
vt 0.187500 0.203125
vt 0.359375 0.156250
vt 0.375000 0.171875
vt 0.062500 0.468750
vt 0.265625 0.062500
vt 0.250000 0.046875
vt 0.250000 0.062500
vt 0.265625 0.156250
vt 0.250000 0.156250
vt 0.359375 0.062500
vt 0.375000 0.046875
vt 0.375000 0.156250
vt 0.375000 0.062500
vt 0.359375 0.046875
vt 0.265625 0.062500
vt 0.265625 0.046875
vt 0.265625 0.171875
vt 0.359375 0.171875
vt 0.250000 0.062500
vt 0.718750 0.218750
vt 0.906250 0.062500
vt 1.000000 0.062500
vt 0.812500 0.062500
vt 0.718750 0.062500
vt 0.625000 0.062500
vt 0.531250 0.156250
vt 0.531250 0.062500
vt 0.750000 0.812500
vt 0.859375 0.843750
vt 0.750000 0.984375
vt 0.750000 0.562500
vt -0.000308 0.046645
vt 0.250000 0.500000
vt 0.125000 1.000000
vt 0.000000 0.796875
vt 0.125000 0.750000
vt 0.125000 0.734375
vt 0.015625 0.984375
vt 0.750000 0.468750
vt 0.625000 0.406250
vt 0.250000 0.156250
vt 0.625000 0.156250
s 0
f 6/1/1 4/2/1 8/3/1
f 4/4/2 1/5/2 3/6/2
f 1/5/3 6/7/3 5/8/3
f 5/9/4 3/10/4 1/11/4
f 5/6/5 8/12/5 7/5/5
f 7/13/6 4/14/6 3/15/6
f 23/16/3 26/17/3 25/18/3
f 26/19/1 21/20/1 16/21/1
f 13/22/3 15/7/3 14/12/3
f 9/21/2 18/23/2 14/24/2
f 21/25/5 11/24/5 10/14/5
f 11/26/6 9/27/6 10/28/6
f 18/22/3 28/16/3 17/18/3
f 19/20/1 12/29/1 11/30/1
f 14/28/4 10/12/4 9/31/4
f 24/32/5 22/25/5 26/33/5
f 27/34/1 23/35/1 28/36/1
f 28/37/2 25/38/2 17/23/2
f 25/35/1 18/39/1 17/36/1
f 16/21/1 25/35/1 26/19/1
f 20/27/3 27/40/3 28/16/3
f 27/40/3 21/41/3 22/17/3
f 30/42/5 31/43/5 29/44/5
f 32/45/6 35/46/6 31/47/6
f 36/48/2 33/44/2 35/43/2
f 34/42/3 29/49/3 33/44/3
f 35/44/4 29/50/4 31/49/4
f 32/26/1 34/51/1 36/42/1
f 37/44/5 43/52/5 48/53/5
f 38/54/6 45/55/6 43/56/6
f 40/43/2 47/53/2 45/52/2
f 38/49/1 39/57/1 40/44/1
f 44/58/4 42/59/4 41/60/4
f 47/61/2 50/58/2 46/62/2
f 45/52/2 46/58/2 44/63/2
f 43/56/6 44/59/6 41/64/6
f 48/53/5 41/63/5 42/58/5
f 49/53/3 51/60/3 50/58/3
f 48/65/1 49/66/1 47/53/1
f 42/67/5 52/52/5 48/68/5
f 46/64/4 51/60/4 42/59/4
f 39/44/3 48/65/3 47/53/3
f 54/69/5 55/70/5 53/71/5
f 56/72/6 59/73/6 55/70/6
f 60/74/2 57/75/2 59/73/2
f 58/76/3 53/77/3 57/75/3
f 59/78/4 53/79/4 55/80/4
f 56/4/1 58/76/1 60/81/1
f 64/82/2 61/83/2 63/84/2
f 68/8/1 69/85/1 64/86/1
f 61/84/3 66/87/3 65/83/3
f 67/84/6 64/87/6 63/83/6
f 65/84/5 68/87/5 67/83/5
f 67/8/4 80/88/4 65/89/4
f 72/90/5 76/91/5 71/92/5
f 66/89/1 71/91/1 68/8/1
f 64/86/1 70/93/1 62/94/1
f 62/94/1 72/88/1 66/89/1
f 69/95/2 75/93/2 70/96/2
f 70/97/3 74/98/3 72/99/3
f 71/100/6 73/85/6 69/101/6
f 74/98/1 73/85/1 76/91/1
f 79/91/5 84/102/5 80/88/5
f 61/94/4 78/85/4 63/86/4
f 65/89/4 77/93/4 61/94/4
f 63/86/4 79/91/4 67/8/4
f 84/88/4 82/85/4 81/93/4
f 77/93/2 82/95/2 78/85/2
f 80/88/3 81/97/3 77/93/3
f 78/85/6 83/100/6 79/91/6
f 85/103/4 89/80/4 86/78/4
f 86/70/2 87/69/2 85/71/2
f 85/77/3 90/76/3 88/75/3
f 88/75/5 91/74/5 89/73/5
f 90/76/1 92/4/1 91/81/1
f 89/73/6 92/72/6 86/70/6
f 94/71/5 95/104/5 93/105/5
f 96/70/6 99/106/6 95/104/6
f 100/73/2 97/107/2 99/106/2
f 98/75/3 93/108/3 97/107/3
f 99/108/4 93/109/4 95/110/4
f 96/80/1 98/103/1 100/78/1
f 101/109/4 105/108/4 102/110/4
f 102/104/2 103/71/2 101/105/2
f 101/108/3 106/75/3 104/107/3
f 104/107/5 107/73/5 105/106/5
f 106/79/1 108/78/1 107/80/1
f 105/106/6 108/70/6 102/104/6
f 111/111/1 110/44/1 124/49/1
f 115/52/2 109/44/2 112/53/2
f 112/65/3 111/44/3 114/53/3
f 116/53/2 113/62/2 112/61/2
f 122/63/2 112/53/2 113/58/2
f 118/2/1 112/53/1 114/65/1
f 117/60/3 118/53/3 119/58/3
f 119/63/5 114/68/5 120/67/5
f 117/60/4 120/64/4 113/59/4
f 120/58/5 123/52/5 121/63/5
f 113/59/4 121/58/4 122/60/4
f 121/59/6 115/56/6 122/64/6
f 114/53/5 124/43/5 123/52/5
f 123/55/6 110/54/6 115/56/6
f 125/112/4 129/49/4 126/44/4
f 126/43/2 127/42/2 125/44/2
f 125/49/3 130/42/3 128/44/3
f 128/44/5 131/48/5 129/43/5
f 130/113/1 132/42/1 131/26/1
f 129/46/6 132/45/6 126/47/6
f 6/1/1 2/114/1 4/2/1
f 4/4/2 2/12/2 1/5/2
f 1/5/3 2/12/3 6/7/3
f 5/9/4 7/115/4 3/10/4
f 5/6/5 6/4/5 8/12/5
f 7/13/6 8/116/6 4/14/6
f 23/16/3 24/40/3 26/17/3
f 26/19/1 22/34/1 21/20/1
f 13/22/3 16/41/3 15/7/3
f 9/21/2 12/30/2 18/23/2
f 12/30/2 20/117/2 18/23/2
f 18/23/2 13/118/2 14/24/2
f 21/25/5 19/119/5 11/24/5
f 10/14/5 15/7/5 21/25/5
f 15/7/5 16/41/5 21/25/5
f 11/26/6 12/29/6 9/27/6
f 18/22/3 20/27/3 28/16/3
f 19/20/1 20/39/1 12/29/1
f 14/28/4 15/27/4 10/12/4
f 24/32/5 27/120/5 22/25/5
f 27/34/1 24/19/1 23/35/1
f 28/37/2 23/121/2 25/38/2
f 25/35/1 13/27/1 18/39/1
f 16/21/1 13/27/1 25/35/1
f 20/27/3 19/21/3 27/40/3
f 27/40/3 19/21/3 21/41/3
f 30/42/5 32/48/5 31/43/5
f 32/45/6 36/58/6 35/46/6
f 36/48/2 34/42/2 33/44/2
f 34/42/3 30/26/3 29/49/3
f 35/44/4 33/112/4 29/50/4
f 32/26/1 30/113/1 34/51/1
f 37/44/5 38/43/5 43/52/5
f 38/54/6 40/122/6 45/55/6
f 40/43/2 39/44/2 47/53/2
f 38/49/1 37/111/1 39/57/1
f 44/58/4 46/64/4 42/59/4
f 47/61/2 49/53/2 50/58/2
f 45/52/2 47/53/2 46/58/2
f 43/56/6 45/55/6 44/59/6
f 48/53/5 43/52/5 41/63/5
f 49/53/3 52/65/3 51/60/3
f 48/65/1 52/2/1 49/66/1
f 42/67/5 51/63/5 52/52/5
f 46/64/4 50/58/4 51/60/4
f 39/44/3 37/49/3 48/65/3
f 54/69/5 56/72/5 55/70/5
f 56/72/6 60/74/6 59/73/6
f 60/74/2 58/76/2 57/75/2
f 58/76/3 54/123/3 53/77/3
f 59/78/4 57/103/4 53/79/4
f 56/4/1 54/123/1 58/76/1
f 64/82/2 62/87/2 61/83/2
f 68/8/1 71/91/1 69/85/1
f 61/84/3 62/82/3 66/87/3
f 67/84/6 68/82/6 64/87/6
f 65/84/5 66/82/5 68/87/5
f 67/8/4 79/91/4 80/88/4
f 72/90/5 74/98/5 76/91/5
f 66/89/1 72/88/1 71/91/1
f 64/86/1 69/85/1 70/93/1
f 62/94/1 70/93/1 72/88/1
f 69/95/2 73/85/2 75/93/2
f 70/97/3 75/93/3 74/98/3
f 71/100/6 76/91/6 73/85/6
f 74/98/1 75/93/1 73/85/1
f 79/91/5 83/124/5 84/102/5
f 61/94/4 77/93/4 78/85/4
f 65/89/4 80/88/4 77/93/4
f 63/86/4 78/85/4 79/91/4
f 84/88/4 83/91/4 82/85/4
f 77/93/2 81/96/2 82/95/2
f 80/88/3 84/99/3 81/97/3
f 78/85/6 82/101/6 83/100/6
f 85/103/4 88/79/4 89/80/4
f 86/70/2 92/72/2 87/69/2
f 85/77/3 87/123/3 90/76/3
f 88/75/5 90/76/5 91/74/5
f 90/76/1 87/123/1 92/4/1
f 89/73/6 91/74/6 92/72/6
f 94/71/5 96/70/5 95/104/5
f 96/70/6 100/73/6 99/106/6
f 100/73/2 98/75/2 97/107/2
f 98/75/3 94/77/3 93/108/3
f 99/108/4 97/125/4 93/109/4
f 96/80/1 94/79/1 98/103/1
f 101/109/4 104/125/4 105/108/4
f 102/104/2 108/70/2 103/71/2
f 101/108/3 103/77/3 106/75/3
f 104/107/5 106/75/5 107/73/5
f 106/79/1 103/103/1 108/78/1
f 105/106/6 107/73/6 108/70/6
f 111/111/1 109/57/1 110/44/1
f 115/52/2 110/43/2 109/44/2
f 112/65/3 109/49/3 111/44/3
f 116/53/2 117/58/2 113/62/2
f 122/63/2 115/52/2 112/53/2
f 118/2/1 116/66/1 112/53/1
f 117/60/3 116/65/3 118/53/3
f 119/63/5 118/52/5 114/68/5
f 117/60/4 119/58/4 120/64/4
f 120/58/5 114/53/5 123/52/5
f 113/59/4 120/64/4 121/58/4
f 121/59/6 123/55/6 115/56/6
f 114/53/5 111/44/5 124/43/5
f 123/55/6 124/122/6 110/54/6
f 125/112/4 128/50/4 129/49/4
f 126/43/2 132/48/2 127/42/2
f 125/49/3 127/26/3 130/42/3
f 128/44/5 130/42/5 131/48/5
f 130/113/1 127/51/1 132/42/1
f 129/46/6 131/58/6 132/45/6
