# Blender 4.3.2
# www.blender.org
o Astronaut
v -0.250000 -0.448394 -0.124524
v -0.250000 -0.012559 -0.162655
v -0.250000 -0.426605 0.124524
v -0.250000 0.009230 0.086394
v 0.250000 -0.448394 -0.124524
v 0.250000 -0.012559 -0.162655
v 0.250000 -0.426605 0.124524
v 0.250000 0.009230 0.086394
v 0.038313 -0.656777 -0.017645
v 0.036713 -0.590080 0.157584
v 0.017129 -0.482727 -0.084085
v 0.255654 -0.633018 -0.024703
v 0.254054 -0.566322 0.150526
v 0.234471 -0.458969 -0.091144
v 0.232871 -0.392273 0.084085
v 0.015529 -0.416031 0.091144
v -0.033604 -0.653288 -0.031472
v -0.017508 -0.475285 -0.088146
v -0.030672 -0.596652 0.147246
v -0.014576 -0.418648 0.090571
v -0.251520 -0.634355 -0.033897
v -0.235424 -0.456352 -0.090571
v -0.248588 -0.577719 0.144820
v -0.232492 -0.399715 0.088146
v 0.275200 -0.143948 -0.276859
v 0.299655 -0.272325 -0.142407
v 0.237772 0.031393 -0.102633
v 0.458967 -0.106776 -0.274792
v 0.483422 -0.235154 -0.140340
v 0.421539 0.068565 -0.100566
v 0.445994 -0.059813 0.033887
v 0.262228 -0.096985 0.031819
v -0.268375 -0.295624 -0.078684
v -0.250000 -0.051097 -0.127353
v -0.268375 -0.259023 0.105209
v -0.250000 -0.014495 0.056539
v -0.455368 -0.282108 -0.081374
v -0.436993 -0.037580 -0.130044
v -0.455368 -0.245506 0.102519
v -0.436993 -0.000979 0.053849
v 0.038313 -0.656777 -0.017645
v 0.030040 -0.538055 0.127244
v 0.255654 -0.633018 -0.024703
v 0.054619 -0.776518 0.081402
v 0.064402 -0.848363 0.140830
v 0.271960 -0.752760 0.074343
v 0.046346 -0.657796 0.226291
v 0.057376 -0.816092 0.033105
v 0.067160 -0.887936 0.092533
v 0.274718 -0.792333 0.026047
v 0.284501 -0.864178 0.085475
v 0.281744 -0.824604 0.133771
v 0.273471 -0.705882 0.278661
v 0.056130 -0.729641 0.285719
v 0.263688 -0.634038 0.219233
v 0.247382 -0.514296 0.120186
v -0.033604 -0.653288 -0.031472
v -0.025692 -0.542840 0.119838
v -0.251520 -0.634355 -0.033897
v -0.243608 -0.523907 0.117413
v -0.044786 -0.743700 0.267454
v -0.052698 -0.854149 0.116144
v -0.037626 -0.668377 0.212098
v -0.262702 -0.724767 0.265029
v -0.255542 -0.649444 0.209673
v -0.270614 -0.835216 0.113719
v -0.263453 -0.759893 0.058363
v -0.045538 -0.778826 0.060788
v -0.266091 -0.796709 0.007926
v -0.273251 -0.872032 0.063282
v -0.055335 -0.890965 0.065708
v -0.048175 -0.815642 0.010352
v 0.296139 -0.195321 -0.508147
v 0.329327 -0.372124 -0.455274
v 0.270834 -0.119436 -0.238513
v 0.479906 -0.158747 -0.501194
v 0.513094 -0.335550 -0.448320
v 0.454601 -0.082862 -0.231560
v 0.487788 -0.259665 -0.178686
v 0.304021 -0.296239 -0.185639
v -0.277605 -0.552554 -0.088387
v -0.268174 -0.271538 -0.081880
v -0.277605 -0.556894 0.099063
v -0.268174 -0.275878 0.105570
v -0.465000 -0.546269 -0.088241
v -0.455569 -0.265252 -0.081735
v -0.465000 -0.550609 0.099209
v -0.455569 -0.269592 0.105715
v -0.250000 -0.001665 0.211869
v 0.250000 -0.001665 0.211869
v 0.250000 0.498335 0.211869
v -0.250000 0.498335 0.211869
v -0.250000 0.092085 -0.288131
v -0.250000 -0.001665 -0.288131
v 0.250000 -0.001665 -0.288131
v 0.250000 0.092085 -0.288131
v -0.218750 0.092085 -0.038131
v -0.250000 0.092085 -0.038131
v 0.250000 0.498335 -0.038131
v -0.250000 0.498335 -0.038131
v 0.250000 0.092085 -0.038131
v 0.218750 0.092085 -0.038131
v -0.218750 0.467085 -0.256881
v 0.218750 0.467085 -0.256881
v -0.218750 0.092085 -0.256881
v 0.218750 0.092085 -0.256881
v 0.218750 0.467085 -0.038131
v -0.218750 0.467085 -0.038131
v -0.125000 -0.582261 0.138142
v -0.125000 -0.053032 0.091841
v -0.125000 -0.560472 0.387191
v -0.125000 -0.031244 0.340890
v 0.125000 -0.582261 0.138142
v 0.125000 -0.053032 0.091841
v 0.125000 -0.560472 0.387191
v 0.125000 -0.031244 0.340890
v -0.093750 -0.033967 0.309759
v -0.093750 -0.050309 0.122972
v 0.093750 -0.033967 0.309759
v 0.093750 -0.050309 0.122972
v -0.093750 -0.002836 0.307035
v 0.093750 -0.019178 0.120248
v -0.093750 -0.019178 0.120248
v 0.093750 -0.002836 0.307035
v -0.093750 -0.579537 0.169274
v -0.093750 -0.563196 0.356060
v 0.093750 -0.563196 0.356060
v 0.093750 -0.579537 0.169274
v -0.093750 -0.610668 0.171997
v -0.093750 -0.594327 0.358784
v 0.093750 -0.594327 0.358784
v 0.093750 -0.610668 0.171997
v -0.250000 0.092085 -0.038131
v 0.250000 0.092085 -0.038131
v -0.250000 0.498335 -0.288131
v 0.250000 0.498335 -0.288131
v -0.250000 0.092085 -0.288131
v 0.250000 0.092085 -0.288131
v 0.250000 0.498335 -0.038131
v -0.250000 0.498335 -0.038131
vn -0.0000 0.9962 -0.0872
vn -1.0000 -0.0000 -0.0000
vn -0.0000 -0.0872 -0.9962
vn -0.0000 -0.9962 0.0872
vn 1.0000 -0.0000 -0.0000
vn -0.0000 0.0872 0.9962
vn 0.1130 -0.9283 0.3543
vn -0.9936 -0.1086 0.0323
vn 0.0085 -0.3557 -0.9346
vn 0.9936 0.1086 -0.0323
vn -0.1130 0.9283 -0.3543
vn -0.0085 0.3557 0.9346
vn 0.9962 -0.0866 0.0111
vn 0.0156 0.3021 0.9532
vn -0.9962 0.0866 -0.0111
vn -0.0156 -0.3021 -0.9532
vn -0.0858 -0.9494 0.3023
vn 0.0858 0.9494 -0.3023
vn 0.1497 -0.7014 -0.6969
vn -0.9801 -0.1982 -0.0110
vn -0.1304 0.6847 -0.7171
vn 0.9801 0.1982 0.0110
vn -0.1497 0.7014 0.6969
vn 0.1304 -0.6847 0.7171
vn 0.9973 -0.0721 0.0143
vn -0.0000 0.1952 0.9808
vn -0.9973 0.0721 -0.0143
vn -0.0000 -0.1952 -0.9808
vn -0.0735 -0.9781 0.1947
vn 0.0735 0.9781 -0.1947
vn -0.1044 0.7663 -0.6339
vn 0.0441 -0.6332 -0.7727
vn 0.1044 -0.7663 0.6339
vn -0.0441 0.6332 0.7727
vn 0.0422 0.5891 0.8070
vn 0.0764 0.8034 -0.5905
vn -0.0764 -0.8034 0.5905
vn -0.0422 -0.5891 -0.8070
vn 0.0900 -0.2698 -0.9587
vn -0.9801 -0.1951 -0.0371
vn -0.1770 0.9429 -0.2820
vn 0.9801 0.1951 0.0371
vn -0.0900 0.2698 0.9587
vn 0.1770 -0.9429 0.2820
vn 0.9994 -0.0335 -0.0008
vn -0.0000 -0.0231 0.9997
vn -0.9994 0.0335 0.0008
vn -0.0000 0.0231 -0.9997
vn -0.0335 -0.9992 -0.0231
vn 0.0335 0.9992 0.0231
vn -0.0000 -0.0000 -1.0000
vn -0.0000 1.0000 -0.0000
vn -0.0000 -0.0000 1.0000
vn -0.0000 -1.0000 -0.0000
vt 0.500000 0.687500
vt 0.500000 0.562500
vt 0.750000 0.562500
vt 0.750000 0.687500
vt 0.625000 0.281250
vt 0.625000 0.500000
vt 0.500000 0.500000
vt 0.500000 0.281250
vt 0.250000 0.281250
vt 0.250000 0.500000
vt 0.624692 0.296645
vt 0.499692 0.296645
vt 0.499692 0.281020
vt 0.624692 0.281020
vt 0.000000 0.281250
vt 0.250000 0.281250
vt 0.250000 0.500000
vt 0.000000 0.500000
vt 0.859375 0.906250
vt 0.859375 0.921875
vt 0.750000 0.921875
vt 0.750000 0.906250
vt 0.953125 0.906250
vt 0.953125 1.000000
vt 0.859375 1.000000
vt 0.750000 1.000000
vt 0.750000 0.984375
vt 0.859375 0.984375
vt 0.968750 0.687500
vt 0.859375 0.687500
vt 0.859375 0.781250
vt 0.968750 0.781250
vt 0.718750 0.140625
vt 0.718750 0.125000
vt 0.625000 0.125000
vt 0.625000 0.140625
vt 1.000000 0.140625
vt 0.906250 0.140625
vt 0.906250 0.265625
vt 1.000000 0.265625
vt 0.718750 0.140625
vt 0.625000 0.140625
vt 0.625000 0.265625
vt 0.718750 0.265625
vt 0.812500 0.140625
vt 0.812500 0.265625
vt 0.718750 0.359375
vt 0.625000 0.359375
vt 0.750000 0.890625
vt 0.859375 0.890625
vt 0.859375 0.828125
vt 0.953125 0.828125
vt 0.750000 0.828125
vt 0.875000 0.828125
vt 0.875000 0.781250
vt 0.953125 0.781250
vt 0.750000 0.812500
vt 0.859375 0.812500
vt 0.750000 0.781250
vt 0.937500 0.781250
vt 0.937500 0.828125
vt 0.750000 0.796875
vt 0.859375 0.796875
vt 0.750000 0.750000
vt 0.859375 0.750000
vt 0.750000 0.671875
vt 0.859375 0.671875
vt 0.531250 0.000000
vt 0.531250 0.093750
vt 0.625000 0.093750
vt 0.625000 0.000000
vt 1.000000 0.000000
vt 0.906250 0.000000
vt 0.718750 0.000000
vt 0.812500 0.000000
vt 0.484375 0.546875
vt 0.484375 0.734375
vt 0.265625 0.734375
vt 0.265625 0.546875
vt 0.250000 0.750000
vt 0.265625 0.765625
vt 0.265625 0.875000
vt 0.250000 0.875000
vt 0.500000 0.546875
vt 0.250000 0.546875
vt 0.250000 1.000000
vt 0.125000 1.000000
vt 0.125000 0.796875
vt 0.000000 0.796875
vt 0.000000 0.750000
vt 0.125000 0.546875
vt 0.125000 0.750000
vt 0.500000 1.000000
vt 0.500000 0.750000
vt 0.500000 0.875000
vt 0.750000 0.500000
vt 0.234375 0.546875
vt 0.234375 0.734375
vt 0.125000 0.734375
vt 0.484375 0.875000
vt 0.484375 0.765625
vt 0.125000 0.984375
vt 0.015625 0.984375
vt 0.015625 0.796875
vt 0.999692 0.265395
vt 0.999692 0.531020
vt 0.874692 0.531020
vt 0.874692 0.265395
vt 0.999692 0.656020
vt 0.874692 0.656020
vt 0.890317 0.640395
vt 0.984067 0.640395
vt 0.874692 0.531020
vt 0.890317 0.546645
vt 0.874692 0.640395
vt 0.874692 0.546645
vt 0.999692 0.531020
vt 0.984067 0.546645
vt 0.999692 0.546645
vt 0.999692 0.640395
vt 0.890317 0.531020
vt 0.984067 0.531020
vt 0.984067 0.656020
vt 0.890317 0.656020
vt 0.874692 0.640395
vt 0.874692 0.546645
vt 0.250000 0.078125
vt 0.000000 0.078125
vt 0.375000 0.078125
vt 0.375000 0.281250
vt 0.375000 0.031250
vt 0.500000 0.031250
s 0
f 8/1/1 6/2/1 2/3/1 4/4/1
f 3/5/2 4/6/2 2/7/2 1/8/2
f 5/9/3 1/8/3 2/7/3 6/10/3
f 1/11/4 5/12/4 7/13/4 3/14/4
f 7/8/5 5/5/5 6/6/5 8/7/5
f 3/15/6 7/16/6 8/17/6 4/18/6
f 10/19/7 9/20/7 12/21/7 13/22/7
f 9/19/8 10/23/8 16/24/8 11/25/8
f 12/19/9 9/22/9 11/26/9 14/25/9
f 13/23/10 12/19/10 14/25/10 15/24/10
f 15/26/11 14/27/11 11/28/11 16/25/11
f 10/29/12 13/30/12 15/31/12 16/32/12
f 17/19/13 18/25/13 20/24/13 19/23/13
f 19/29/14 20/32/14 24/31/14 23/30/14
f 23/23/15 24/24/15 22/25/15 21/19/15
f 21/19/16 22/25/16 18/26/16 17/22/16
f 19/22/17 23/19/17 21/20/17 17/21/17
f 24/25/18 20/26/18 18/27/18 22/28/18
f 26/33/19 25/34/19 28/35/19 29/36/19
f 25/37/20 26/38/20 32/39/20 27/40/20
f 28/41/21 25/42/21 27/43/21 30/44/21
f 29/45/22 28/41/22 30/44/22 31/46/22
f 31/47/23 30/44/23 27/43/23 32/48/23
f 26/38/24 29/45/24 31/46/24 32/39/24
f 33/37/25 34/40/25 36/39/25 35/38/25
f 35/38/26 36/39/26 40/46/26 39/45/26
f 39/45/27 40/46/27 38/44/27 37/41/27
f 37/41/28 38/44/28 34/43/28 33/42/28
f 35/36/29 39/33/29 37/34/29 33/35/29
f 40/47/30 36/48/30 34/43/30 38/44/30
f 56/22/31 43/49/31 41/50/31 42/19/31
f 44/51/8 47/52/8 42/23/8 41/19/8
f 46/51/32 44/53/32 41/22/32 43/19/32
f 44/54/8 48/51/8 49/31/8 45/55/8
f 45/31/8 54/56/8 47/52/8 44/51/8
f 46/53/31 50/57/31 48/58/31 44/51/31
f 51/31/32 49/59/32 48/53/32 50/51/32
f 52/60/10 51/56/10 50/52/10 46/61/10
f 45/62/33 49/59/33 51/31/33 52/63/33
f 53/56/10 52/31/10 46/51/10 55/52/10
f 54/59/33 45/62/33 52/63/33 53/31/33
f 54/63/34 53/62/34 55/64/34 47/65/34
f 55/52/10 46/51/10 43/19/10 56/23/10
f 47/65/34 55/64/34 56/66/34 42/67/34
f 68/51/13 57/19/13 58/23/13 63/52/13
f 63/65/35 58/67/35 60/66/35 65/64/35
f 65/52/15 60/23/15 59/19/15 67/51/15
f 60/19/36 58/22/36 57/49/36 59/50/36
f 61/59/37 64/31/37 66/63/37 62/62/37
f 66/55/15 67/54/15 69/51/15 70/31/15
f 64/56/15 65/52/15 67/51/15 66/31/15
f 61/63/35 63/65/35 65/64/35 64/62/35
f 62/31/13 68/51/13 63/52/13 61/56/13
f 70/31/38 69/51/38 72/53/38 71/59/38
f 67/51/36 68/53/36 72/57/36 69/58/36
f 68/61/13 62/60/13 71/56/13 72/52/13
f 62/62/37 66/63/37 70/31/37 71/59/37
f 67/51/38 59/19/38 57/22/38 68/53/38
f 74/68/39 73/69/39 76/70/39 77/71/39
f 73/72/40 74/73/40 80/38/40 75/37/40
f 76/74/41 73/71/41 75/42/41 78/41/41
f 77/75/42 76/74/42 78/41/42 79/45/42
f 79/36/43 78/35/43 75/34/43 80/33/43
f 74/73/44 77/75/44 79/45/44 80/38/44
f 81/72/45 82/37/45 84/38/45 83/73/45
f 83/73/46 84/38/46 88/45/46 87/75/46
f 87/75/47 88/45/47 86/41/47 85/74/47
f 85/74/48 86/41/48 82/42/48 81/71/48
f 83/68/49 87/71/49 85/70/49 81/69/49
f 88/33/50 84/36/50 82/35/50 86/34/50
f 105/76/51 103/77/51 104/78/51 106/79/51
f 96/80/52 106/81/52 102/82/52 101/83/52
f 94/7/51 93/84/51 96/85/51 95/10/51
f 89/80/2 92/86/2 100/87/2 98/88/2 93/89/2 94/90/2
f 101/91/5 99/92/5 91/90/5 90/18/5 95/10/5 96/85/5
f 90/64/53 91/26/53 92/93/53 89/94/53
f 98/84/51 100/94/51 108/77/51 97/76/51
f 91/86/52 99/83/52 100/95/52 92/93/52
f 89/96/54 94/64/54 95/94/54 90/7/54
f 106/97/5 104/98/5 107/99/5 102/91/5
f 108/100/52 107/82/52 104/81/52 103/101/52
f 97/88/2 108/102/2 103/103/2 105/104/2
f 105/101/52 93/94/52 98/95/52 97/100/52
f 106/81/52 96/80/52 93/94/52 105/101/52
f 108/77/51 100/94/51 99/80/51 107/78/51
f 107/78/51 99/80/51 101/85/51 102/79/51
f 111/105/2 112/106/2 110/107/2 109/108/2
f 112/109/1 116/110/1 119/111/1 117/112/1
f 113/108/3 109/105/3 110/106/3 114/107/3
f 111/108/6 115/105/6 116/106/6 112/107/6
f 115/108/5 113/105/5 114/106/5 116/107/5
f 113/113/4 115/110/4 127/111/4 128/114/4
f 119/115/5 120/116/5 122/114/5 124/111/5
f 116/110/1 114/113/1 120/114/1 119/111/1
f 110/117/1 112/109/1 117/112/1 118/118/1
f 114/113/1 110/117/1 118/118/1 120/114/1
f 118/119/2 117/120/2 121/112/2 123/118/2
f 120/121/3 118/122/3 123/118/3 122/114/3
f 117/123/6 119/124/6 124/111/6 121/112/6
f 124/111/1 122/114/1 123/118/1 121/112/1
f 128/114/5 127/111/5 131/125/5 132/126/5
f 111/109/4 109/117/4 125/118/4 126/112/4
f 109/117/4 113/113/4 128/114/4 125/118/4
f 115/110/4 111/109/4 126/112/4 127/111/4
f 129/118/4 132/114/4 131/111/4 130/112/4
f 126/112/2 125/118/2 129/119/2 130/120/2
f 125/118/3 128/114/3 132/121/3 129/122/3
f 127/111/6 126/112/6 130/123/6 131/124/6
f 137/127/51 135/9/51 136/15/51 138/128/51
f 138/129/5 136/130/5 139/9/5 134/127/5
f 140/130/52 139/131/52 136/132/52 135/8/52
f 133/127/2 140/9/2 135/130/2 137/129/2
