# Blender 4.3.2
# www.blender.org
o Astronatut.003
v -0.036872 -0.786977 -0.023487
v -0.031108 -0.737173 0.157185
v -0.009175 -0.547678 -0.090336
v -0.254172 -0.761826 -0.023487
v -0.248407 -0.712021 0.157185
v -0.226474 -0.522527 -0.090336
v -0.220709 -0.472722 0.090336
v -0.003410 -0.497874 0.090336
v -0.250000 -0.531250 -0.125000
v -0.250000 0.031250 -0.125000
v -0.250000 -0.531250 0.125000
v -0.250000 0.031250 0.125000
v 0.250000 -0.531250 -0.125000
v 0.250000 0.031250 -0.125000
v 0.250000 -0.531250 0.125000
v 0.250000 0.031250 0.125000
v -0.250000 0.031250 0.250000
v 0.250000 0.031250 0.250000
v -0.250000 0.531250 0.250000
v -0.250000 0.031250 -0.250000
v -0.250000 0.125000 0.000000
v -0.250000 0.531250 0.000000
v -0.250000 0.125000 -0.250000
v -0.250000 0.531250 -0.250000
v 0.250000 0.125000 -0.250000
v 0.250000 0.031250 -0.250000
v 0.250000 0.125000 -0.000000
v 0.250000 0.531250 -0.250000
v 0.250000 0.531250 -0.000000
v 0.250000 0.531250 0.250000
v -0.038388 -0.800076 -0.013078
v -0.023922 -0.675087 0.125935
v -0.255688 -0.774925 -0.013078
v -0.054372 -0.938167 0.112746
v -0.062364 -1.007213 0.175657
v -0.271671 -0.913016 0.112746
v -0.039905 -0.813178 0.251759
v -0.059194 -0.979830 0.066408
v -0.067186 -1.048876 0.129320
v -0.276494 -0.954679 0.066408
v -0.284485 -1.023725 0.129320
v -0.279663 -0.982062 0.175657
v -0.265196 -0.857073 0.314671
v -0.047897 -0.882224 0.314671
v -0.257204 -0.788027 0.251759
v -0.241221 -0.649936 0.125935
v -0.250000 -0.281250 -0.093750
v -0.250000 -0.281250 0.093750
v -0.250000 0.000000 -0.093750
v -0.437500 -0.281250 -0.093750
v -0.437500 -0.281250 0.093750
v -0.437500 0.000000 -0.093750
v -0.437500 0.000000 0.093750
v -0.250000 0.000000 0.093750
v -0.125000 -0.562500 0.125000
v -0.125000 -0.562500 0.375000
v -0.125000 -0.031250 0.125000
v 0.125000 -0.562500 0.125000
v -0.093750 -0.562500 0.156250
v -0.093750 -0.562500 0.343750
v 0.093750 -0.562500 0.156250
v -0.093750 -0.593750 0.156250
v -0.093750 -0.593750 0.343750
v 0.093750 -0.593750 0.156250
v 0.093750 -0.593750 0.343750
v 0.093750 -0.562500 0.343750
v 0.125000 -0.562500 0.375000
v 0.125000 -0.031250 0.375000
v -0.125000 -0.031250 0.375000
v 0.125000 -0.031250 0.125000
v 0.093750 -0.031250 0.343750
v -0.093750 -0.031250 0.343750
v 0.093750 -0.031250 0.156250
v 0.093750 0.000000 0.343750
v -0.093750 0.000000 0.343750
v 0.093750 0.000000 0.156250
v -0.093750 0.000000 0.156250
v -0.093750 -0.031250 0.156250
v 0.250000 -0.281250 -0.093750
v 0.250000 -0.281250 0.093750
v 0.250000 0.000000 -0.093750
v 0.437500 -0.281250 -0.093750
v 0.437500 -0.281250 0.093750
v 0.437500 0.000000 -0.093750
v 0.437500 0.000000 0.093750
v 0.250000 0.000000 0.093750
v -0.250000 -0.593750 -0.093750
v -0.250000 -0.593750 0.093750
v -0.250000 -0.281250 -0.093750
v -0.437500 -0.593750 -0.093750
v -0.437500 -0.593750 0.093750
v -0.437500 -0.281250 -0.093750
v -0.437500 -0.281250 0.093750
v -0.250000 -0.281250 0.093750
v 0.250000 -0.593750 -0.093750
v 0.250000 -0.593750 0.093750
v 0.250000 -0.281250 -0.093750
v 0.437500 -0.593750 -0.093750
v 0.437500 -0.593750 0.093750
v 0.437500 -0.281250 -0.093750
v 0.437500 -0.281250 0.093750
v 0.250000 -0.281250 0.093750
v 0.051427 -0.815461 -0.013078
v 0.029621 -0.691542 0.125935
v 0.266867 -0.777550 -0.013078
v 0.075519 -0.952371 0.112746
v 0.087566 -1.020826 0.175657
v 0.290959 -0.914460 0.112746
v 0.053713 -0.828452 0.251759
v 0.082788 -0.993677 0.066408
v 0.094834 -1.062132 0.129320
v 0.298228 -0.955766 0.066408
v 0.310274 -1.024221 0.129320
v 0.303005 -0.982915 0.175657
v 0.281199 -0.858995 0.314671
v 0.065759 -0.896906 0.314671
v 0.269153 -0.790540 0.251759
v 0.245061 -0.653631 0.125935
v 0.049142 -0.802474 -0.023487
v 0.040453 -0.753096 0.157185
v 0.007392 -0.565223 -0.090336
v 0.264582 -0.764563 -0.023487
v 0.255892 -0.715185 0.157185
v 0.222832 -0.527312 -0.090336
v 0.214143 -0.477933 0.090336
v -0.001297 -0.515845 0.090336
vn 0.9934 -0.1150 -0.0000
vn -0.1108 -0.9572 0.2674
vn -0.0307 -0.2656 -0.9636
vn -0.9934 0.1150 -0.0000
vn 0.1108 0.9572 -0.2674
vn 0.0307 0.2656 0.9636
vn -1.0000 -0.0000 -0.0000
vn -0.0000 -0.0000 -1.0000
vn -0.0000 -1.0000 -0.0000
vn 1.0000 -0.0000 -0.0000
vn -0.0000 -0.0000 1.0000
vn -0.0000 1.0000 -0.0000
vn 0.0852 0.7365 -0.6711
vn -0.0772 -0.6666 -0.7414
vn -0.0852 -0.7365 0.6711
vn 0.0772 0.6666 0.7414
vn -0.9849 -0.1733 -0.0000
vn -0.1285 0.7302 -0.6711
vn 0.1163 -0.6609 -0.7414
vn 0.9849 0.1733 -0.0000
vn 0.1285 -0.7302 0.6711
vn -0.1163 0.6609 0.7414
vn 0.1670 -0.9490 0.2674
vn 0.0463 -0.2634 -0.9636
vn -0.1670 0.9490 -0.2674
vn -0.0463 0.2634 0.9636
vt 0.859375 1.000000
vt 0.953125 1.000000
vt 0.953125 0.828125
vt 0.859375 0.828125
vt 0.859375 0.843750
vt 0.750000 0.843750
vt 0.750000 0.828125
vt 0.750000 1.000000
vt 0.750000 0.984375
vt 0.859375 0.984375
vt 0.968750 0.640625
vt 0.859375 0.640625
vt 0.859375 0.468750
vt 0.968750 0.468750
vt 0.625000 0.500000
vt 0.500000 0.500000
vt 0.500000 0.171875
vt 0.625000 0.171875
vt 0.250000 0.500000
vt 0.250000 0.171875
vt -0.000308 0.171645
vt -0.000308 0.046645
vt 0.249692 0.046645
vt 0.249692 0.171645
vt 0.250000 0.171875
vt 0.250000 0.500000
vt 0.000000 0.500000
vt 0.000000 0.171875
vt 0.500000 0.562500
vt 0.750000 0.562500
vt 0.750000 0.687500
vt 0.500000 0.687500
vt 0.500000 1.000000
vt 0.500000 0.750000
vt 0.750000 0.750000
vt 0.750000 0.500000
vt 0.250000 1.000000
vt 0.125000 1.000000
vt 0.125000 0.796875
vt 0.250000 0.750000
vt 0.000000 0.796875
vt 0.000000 0.750000
vt 0.125000 0.984375
vt 0.015625 0.984375
vt 0.015625 0.796875
vt 0.484375 0.734375
vt 0.265625 0.734375
vt 0.265625 0.546875
vt 0.484375 0.546875
vt 0.500000 0.546875
vt 0.250000 0.546875
vt 0.125000 0.546875
vt 0.234375 0.734375
vt 0.125000 0.734375
vt 0.234375 0.546875
vt 0.265625 0.875000
vt 0.265625 0.765625
vt 0.484375 0.765625
vt 0.484375 0.875000
vt 0.250000 0.875000
vt 0.500000 0.875000
vt 0.125000 0.750000
vt 0.750000 0.812500
vt 0.859375 0.812500
vt 0.953125 0.703125
vt 0.859375 0.703125
vt 0.750000 0.703125
vt 0.937500 0.640625
vt 0.953125 0.640625
vt 0.937500 0.703125
vt 0.859375 0.687500
vt 0.750000 0.640625
vt 0.875000 0.703125
vt 0.875000 0.640625
vt 0.859375 0.656250
vt 0.750000 0.656250
vt 0.859375 0.593750
vt 0.750000 0.593750
vt 0.859375 0.468750
vt 0.750000 0.468750
vt 0.718750 0.234375
vt 0.718750 0.218750
vt 0.625000 0.218750
vt 0.625000 0.234375
vt 1.000000 0.406250
vt 0.906250 0.406250
vt 0.906250 0.234375
vt 1.000000 0.234375
vt 0.718750 0.406250
vt 0.625000 0.406250
vt 0.625000 0.234375
vt 0.718750 0.234375
vt 0.812500 0.406250
vt 0.812500 0.234375
vt 0.718750 0.500000
vt 0.187500 0.468750
vt 0.062500 0.468750
vt 0.062500 0.203125
vt 0.187500 0.203125
vt 0.375000 0.046875
vt 0.359375 0.062500
vt 0.359375 0.156250
vt 0.375000 0.171875
vt 0.250000 0.046875
vt 0.265625 0.062500
vt 0.375000 0.062500
vt 0.375000 0.156250
vt 0.265625 0.046875
vt 0.359375 0.046875
vt 0.265625 0.156250
vt 0.250000 0.156250
vt 0.250000 0.062500
vt 0.359375 0.171875
vt 0.265625 0.171875
vt 0.250000 0.062500
vt 0.265625 0.062500
vt 0.250000 0.156250
vt 0.625000 0.062500
vt 0.625000 0.156250
vt 0.531250 0.156250
vt 0.531250 0.062500
vt 0.906250 0.062500
vt 1.000000 0.062500
vt 0.718750 0.062500
vt 0.812500 0.062500
s 0
f 3/1/1 8/2/1 2/3/1 1/4/1
f 5/4/2 4/5/2 1/6/2 2/7/2
f 6/1/3 3/8/3 1/7/3 4/4/3
f 7/2/4 6/1/4 4/4/4 5/3/4
f 8/8/5 3/9/5 6/10/5 7/1/5
f 8/11/6 7/12/6 5/13/6 2/14/6
f 12/15/7 10/16/7 9/17/7 11/18/7
f 9/17/8 10/16/8 14/19/8 13/20/8
f 13/21/9 15/22/9 11/23/9 9/24/9
f 13/18/10 14/15/10 16/16/10 15/17/10
f 15/25/11 16/26/11 12/27/11 11/28/11
f 14/29/12 10/30/12 12/31/12 16/32/12
f 30/8/11 19/33/11 17/34/11 18/35/11
f 20/35/9 26/34/9 18/16/9 17/36/9
f 19/37/7 22/38/7 21/39/7 17/40/7
f 21/39/7 23/41/7 20/42/7 17/40/7
f 22/43/7 24/44/7 23/45/7 21/39/7
f 24/46/8 28/47/8 25/48/8 23/49/8
f 23/50/8 25/51/8 26/19/8 20/16/8
f 26/19/10 25/51/10 27/52/10 18/27/10
f 28/53/10 29/54/10 27/52/10 25/55/10
f 29/56/12 28/57/12 24/58/12 22/59/12
f 29/60/12 22/61/12 19/33/12 30/37/12
f 27/52/10 29/62/10 30/42/10 18/27/10
f 32/7/13 31/63/13 33/64/13 46/4/13
f 31/4/1 32/3/1 37/65/1 34/66/1
f 33/4/14 31/7/14 34/67/14 36/66/14
f 35/68/1 39/69/1 38/65/1 34/70/1
f 34/66/1 37/65/1 44/69/1 35/12/1
f 34/67/13 38/31/13 40/71/13 36/66/13
f 40/66/14 38/67/14 39/72/14 41/12/14
f 36/73/4 40/66/4 41/12/4 42/74/4
f 42/75/15 41/12/15 39/72/15 35/76/15
f 45/65/4 36/66/4 42/12/4 43/69/4
f 43/12/15 42/75/15 35/76/15 44/72/15
f 37/77/16 45/78/16 43/76/16 44/75/16
f 46/3/4 33/4/4 36/66/4 45/65/4
f 32/79/16 46/80/16 45/78/16 37/77/16
f 51/81/9 50/82/9 47/83/9 48/84/9
f 49/85/10 54/86/10 48/87/10 47/88/10
f 52/89/8 49/90/8 47/91/8 50/92/8
f 53/93/7 52/89/7 50/92/7 51/94/7
f 54/15/12 49/90/12 52/89/12 53/95/12
f 54/86/11 53/93/11 51/94/11 48/87/11
f 69/96/7 57/97/7 55/98/7 56/99/7
f 55/100/9 59/101/9 60/102/9 56/103/9
f 55/99/8 57/96/8 70/97/8 58/98/8
f 58/104/9 61/105/9 59/101/9 55/100/9
f 59/101/7 62/106/7 63/107/7 60/102/7
f 61/105/8 64/108/8 62/109/8 59/101/8
f 64/105/9 65/110/9 63/102/9 62/101/9
f 66/110/10 65/111/10 64/112/10 61/105/10
f 60/102/11 63/113/11 65/114/11 66/110/11
f 56/103/9 60/102/9 66/110/9 67/20/9
f 67/20/9 66/110/9 61/105/9 58/104/9
f 67/99/11 68/96/11 69/97/11 56/98/11
f 58/99/10 70/96/10 68/97/10 67/98/10
f 68/20/12 71/110/12 72/102/12 69/103/12
f 70/104/12 73/105/12 71/110/12 68/20/12
f 71/114/11 74/110/11 75/102/11 72/113/11
f 73/115/10 76/116/10 74/110/10 71/117/10
f 76/116/12 77/101/12 75/102/12 74/110/12
f 78/109/8 77/101/8 76/116/8 73/108/8
f 72/107/7 75/102/7 77/101/7 78/106/7
f 69/103/12 72/102/12 78/101/12 57/100/12
f 57/100/12 78/101/12 73/105/12 70/104/12
f 79/82/9 82/83/9 83/84/9 80/81/9
f 80/87/7 86/86/7 81/85/7 79/88/7
f 79/91/8 81/90/8 84/89/8 82/92/8
f 82/92/10 84/89/10 85/93/10 83/94/10
f 84/89/12 81/90/12 86/15/12 85/95/12
f 83/94/11 85/93/11 86/86/11 80/87/11
f 91/118/9 90/119/9 87/120/9 88/121/9
f 89/88/10 94/87/10 88/122/10 87/123/10
f 92/92/8 89/91/8 87/118/8 90/124/8
f 93/94/7 92/92/7 90/124/7 91/125/7
f 94/84/12 89/83/12 92/82/12 93/81/12
f 94/87/11 93/94/11 91/125/11 88/122/11
f 95/120/9 98/119/9 99/118/9 96/121/9
f 96/122/7 102/87/7 97/88/7 95/123/7
f 95/118/8 97/91/8 100/92/8 98/124/8
f 98/124/10 100/92/10 101/94/10 99/125/10
f 100/83/12 97/82/12 102/81/12 101/84/12
f 99/125/11 101/94/11 102/87/11 96/122/11
f 109/65/17 104/3/17 103/4/17 106/66/17
f 105/63/18 103/64/18 104/4/18 118/7/18
f 106/67/19 103/7/19 105/4/19 108/66/19
f 116/69/17 109/65/17 106/66/17 107/12/17
f 110/66/17 111/12/17 107/74/17 106/73/17
f 112/31/18 110/71/18 106/66/18 108/67/18
f 111/72/19 110/67/19 112/66/19 113/12/19
f 113/69/20 112/65/20 108/70/20 114/68/20
f 111/72/21 113/12/21 114/75/21 107/76/21
f 107/76/21 114/75/21 115/12/21 116/72/21
f 114/12/20 108/66/20 117/65/20 115/69/20
f 115/76/22 117/78/22 109/77/22 116/75/22
f 108/66/20 105/4/20 118/3/20 117/65/20
f 117/78/22 118/80/22 104/79/22 109/77/22
f 120/3/17 126/2/17 121/1/17 119/4/17
f 119/5/23 122/6/23 123/7/23 120/4/23
f 119/7/24 121/8/24 124/1/24 122/4/24
f 122/4/20 124/1/20 125/2/20 123/3/20
f 124/9/25 121/10/25 126/1/25 125/8/25
f 123/13/26 125/12/26 126/11/26 120/14/26
