# Blender 4.3.2
# www.blender.org
mtllib spacer.mtl
o Cube
v -0.278860 -0.212033 -0.297894
v -0.278860 0.347598 -0.297894
v -0.278860 -0.212033 0.080938
v -0.278860 0.347598 0.080938
v -0.151270 -0.086528 0.076610
v -0.151270 0.277613 0.076610
v -0.151270 -0.086528 0.244858
v -0.151270 0.277613 0.244858
v 0.279542 -0.212033 -0.297894
v 0.279542 0.347598 -0.297894
v 0.279542 -0.212033 0.080938
v 0.279542 0.347598 0.080938
v 0.151953 -0.086528 0.076610
v 0.151953 0.277613 0.076610
v 0.151953 -0.086528 0.244858
v 0.151953 0.277613 0.244858
vn -0.0000 1.0000 -0.0000
vn -1.0000 -0.0000 -0.0000
vn -0.0000 -0.0000 -1.0000
vn -0.0000 -1.0000 -0.0000
vn -0.0000 -0.0000 1.0000
vn 1.0000 -0.0000 -0.0000
vt 0.397365 0.289143
vt 0.435971 0.288954
vt 0.436353 0.367051
vt 0.397747 0.367240
vt 0.993541 0.697017
vt 0.993541 0.991761
vt 0.834827 0.991761
vt 0.834827 0.697017
vt 0.543993 0.690215
vt 0.808815 0.690215
vt 0.808815 0.987461
vt 0.543993 0.987461
vt 0.832213 0.483259
vt 0.976025 0.484953
vt 0.975001 0.571874
vt 0.831189 0.570180
vt 0.549566 0.392588
vt 0.799800 0.392588
vt 0.799800 0.673460
vt 0.549566 0.673460
vt 0.446647 0.367001
vt 0.446133 0.261962
vt 0.484739 0.261773
vt 0.485253 0.366812
vt 0.622544 0.366140
vt 0.544447 0.366522
vt 0.543934 0.261484
vt 0.622031 0.261102
vt 0.348847 0.367479
vt 0.348465 0.289382
vt 0.387071 0.289193
vt 0.387453 0.367290
vt 0.831005 0.696066
vt 0.989719 0.696066
vt 0.989719 0.990810
vt 0.831005 0.990810
vt 0.977765 0.587350
vt 0.977162 0.674275
vt 0.833343 0.673277
vt 0.833947 0.586352
vt 0.495034 0.261723
vt 0.533639 0.261534
vt 0.534153 0.366573
vt 0.495547 0.366761
s 0
usemtl Material.001
f 16/1/1 14/2/1 6/3/1 8/4/1
f 3/5/2 4/6/2 2/7/2 1/8/2
f 9/9/3 1/10/3 2/11/3 10/12/3
f 1/13/4 9/14/4 11/15/4 3/16/4
f 3/17/5 11/18/5 12/19/5 4/20/5
f 13/21/6 14/22/6 16/23/6 15/24/6
f 7/25/5 15/26/5 16/27/5 8/28/5
f 5/29/4 13/30/4 15/31/4 7/32/4
f 11/33/6 9/34/6 10/35/6 12/36/6
f 12/37/1 10/38/1 2/39/1 4/40/1
f 8/41/2 6/42/2 5/43/2 7/44/2
o Cube.001
v 0.171300 0.339887 -0.281770
v 0.171300 0.684077 -0.281770
v 0.171300 0.339887 0.062420
v 0.171300 0.684077 0.062420
v -0.172890 0.339887 -0.281770
v -0.172890 0.684077 -0.281770
v -0.172890 0.339887 0.062420
v -0.172890 0.684077 0.062420
vn 1.0000 -0.0000 -0.0000
vn -0.0000 -0.0000 1.0000
vn -1.0000 -0.0000 -0.0000
vn -0.0000 -0.0000 -1.0000
vn -0.0000 -1.0000 -0.0000
vn -0.0000 1.0000 -0.0000
vt 0.001693 0.651771
vt 0.170905 0.651771
vt 0.170905 0.820983
vt 0.001693 0.820983
vt 0.351454 0.996953
vt 0.351454 0.827741
vt 0.520665 0.827741
vt 0.520665 0.996953
vt 0.520177 0.652267
vt 0.520177 0.821478
vt 0.350965 0.821478
vt 0.350965 0.652267
vt 0.345250 0.652160
vt 0.345250 0.821371
vt 0.176038 0.821371
vt 0.176038 0.652160
vt 0.170780 0.828041
vt 0.170780 0.997252
vt 0.001568 0.997252
vt 0.001568 0.828041
vt 0.345403 0.996276
vt 0.176191 0.996276
vt 0.176191 0.827064
vt 0.345403 0.827064
s 0
usemtl Material.001
f 17/45/7 18/46/7 20/47/7 19/48/7
f 19/49/8 20/50/8 24/51/8 23/52/8
f 23/53/9 24/54/9 22/55/9 21/56/9
f 21/57/10 22/58/10 18/59/10 17/60/10
f 19/61/11 23/62/11 21/63/11 17/64/11
f 24/65/12 20/66/12 18/67/12 22/68/12
o Cube.002
v -0.045276 -0.408724 -0.208103
v -0.045276 -0.210059 -0.208103
v -0.045276 -0.408724 -0.005779
v -0.045276 -0.210059 -0.005779
v -0.244949 -0.408724 -0.208103
v -0.244949 -0.210059 -0.208103
v -0.244949 -0.408724 -0.005778
v -0.244949 -0.210059 -0.005778
v 0.046413 -0.408724 -0.208103
v 0.046413 -0.210059 -0.208103
v 0.046413 -0.408724 -0.005779
v 0.046413 -0.210059 -0.005779
v 0.246086 -0.408724 -0.208103
v 0.246086 -0.210059 -0.208103
v 0.246086 -0.408724 -0.005779
v 0.246086 -0.210059 -0.005779
vn 1.0000 -0.0000 -0.0000
vn -0.0000 -0.0000 1.0000
vn -1.0000 -0.0000 -0.0000
vn -0.0000 -0.0000 -1.0000
vn -0.0000 -1.0000 -0.0000
vt 0.364475 0.426086
vt 0.364475 0.611447
vt 0.308289 0.611447
vt 0.308289 0.426086
vt 0.010701 0.183698
vt 0.196063 0.183698
vt 0.196063 0.392254
vt 0.010701 0.392254
vt 0.304953 0.193464
vt 0.304953 0.378826
vt 0.248767 0.378826
vt 0.248767 0.193464
vt 0.194743 0.617940
vt 0.009381 0.617940
vt 0.009381 0.409384
vt 0.194743 0.409384
vt 0.475558 -0.000915
vt 0.475558 0.207640
vt 0.419372 0.207640
vt 0.419372 -0.000915
vt 0.247466 0.195455
vt 0.303652 0.195455
vt 0.303652 0.380816
vt 0.247466 0.380816
vt 0.199302 0.189252
vt 0.199302 0.397807
vt 0.013940 0.397807
vt 0.013940 0.189252
vt 0.027757 0.612706
vt 0.027757 0.427877
vt 0.192031 0.427877
vt 0.192031 0.612706
vt 0.339407 0.000561
vt 0.395593 0.000561
vt 0.395593 0.209117
vt 0.339407 0.209117
s 0
usemtl Material.001
f 25/69/13 26/70/13 28/71/13 27/72/13
f 27/73/14 28/74/14 32/75/14 31/76/14
f 31/77/15 32/78/15 30/79/15 29/80/15
f 29/81/16 30/82/16 26/83/16 25/84/16
f 27/85/17 31/86/17 29/87/17 25/88/17
f 33/89/15 35/90/15 36/91/15 34/92/15
f 35/93/14 39/94/14 40/95/14 36/96/14
f 39/97/13 37/98/13 38/99/13 40/100/13
f 37/97/16 33/98/16 34/99/16 38/100/16
f 35/101/17 33/102/17 37/103/17 39/104/17
o Cube.003
v -0.278241 -0.122223 -0.189992
v -0.278241 0.338753 -0.189992
v -0.278241 -0.122223 -0.017071
v -0.278241 0.338753 -0.017071
v -0.409945 -0.122223 -0.189992
v -0.409945 0.338753 -0.189992
v -0.409945 -0.122223 -0.017071
v -0.409945 0.338753 -0.017071
v 0.279378 -0.122223 -0.189992
v 0.279378 0.338753 -0.189992
v 0.279378 -0.122223 -0.017072
v 0.279378 0.338753 -0.017072
v 0.411082 -0.122223 -0.189992
v 0.411082 0.338753 -0.189992
v 0.411082 -0.122223 -0.017072
v 0.411082 0.338753 -0.017072
vn 1.0000 -0.0000 -0.0000
vn -0.0000 -0.0000 1.0000
vn -1.0000 -0.0000 -0.0000
vn -0.0000 -0.0000 -1.0000
vn -0.0000 -1.0000 -0.0000
vn -0.0000 1.0000 -0.0000
vt 0.907379 0.184899
vt 0.907379 0.315359
vt 0.867835 0.315359
vt 0.867835 0.184899
vt 0.940215 0.174046
vt 0.809754 0.174046
vt 0.809754 0.027261
vt 0.940215 0.027261
vt 0.958241 0.184657
vt 0.958241 0.315118
vt 0.918696 0.315118
vt 0.918696 0.184657
vt 0.669987 0.021146
vt 0.800447 0.021146
vt 0.800447 0.167930
vt 0.669987 0.167930
vt 0.816731 0.329520
vt 0.816731 0.182736
vt 0.856276 0.182736
vt 0.856276 0.329520
vt 0.714826 0.180604
vt 0.714826 0.327388
vt 0.675282 0.327388
vt 0.675282 0.180604
vt 0.870106 0.185700
vt 0.909706 0.185700
vt 0.909706 0.316346
vt 0.870106 0.316346
vt 0.803754 0.025252
vt 0.803754 0.172245
vt 0.673109 0.172245
vt 0.673109 0.025252
vt 0.916961 0.185700
vt 0.956562 0.185700
vt 0.956562 0.316346
vt 0.916961 0.316346
vt 0.815362 0.171490
vt 0.815362 0.024498
vt 0.946008 0.024498
vt 0.946008 0.171490
vt 0.815362 0.178746
vt 0.854963 0.178746
vt 0.854963 0.325739
vt 0.815362 0.325739
vt 0.790807 0.326831
vt 0.751207 0.326831
vt 0.751207 0.179838
vt 0.790807 0.179838
s 0
usemtl Material.001
f 41/105/18 42/106/18 44/107/18 43/108/18
f 43/109/19 44/110/19 48/111/19 47/112/19
f 47/113/20 48/114/20 46/115/20 45/116/20
f 45/117/21 46/118/21 42/119/21 41/120/21
f 43/121/22 47/122/22 45/123/22 41/124/22
f 48/125/23 44/126/23 42/127/23 46/128/23
f 49/129/20 51/130/20 52/131/20 50/132/20
f 51/133/19 55/134/19 56/135/19 52/136/19
f 55/137/18 53/138/18 54/139/18 56/140/18
f 53/141/21 49/142/21 50/143/21 54/144/21
f 51/145/22 49/146/22 53/147/22 55/148/22
f 56/149/23 54/150/23 50/151/23 52/152/23
