# Blender 4.3.2
# www.blender.org
o Body_Default
v -0.250000 -0.437500 -0.125000
v -0.250000 0.000000 -0.125000
v -0.250000 -0.437500 0.125000
v -0.250000 0.000000 0.125000
v 0.250000 -0.437500 -0.125000
v 0.250000 0.000000 -0.125000
v 0.250000 -0.437500 0.125000
v 0.250000 0.000000 0.125000
v -0.250000 -0.281250 -0.093750
v -0.250000 -0.031250 -0.093750
v -0.250000 -0.281250 0.093750
v -0.250000 -0.031250 0.093750
v -0.437500 -0.281250 -0.093750
v -0.437500 -0.031250 -0.093750
v -0.437500 -0.281250 0.093750
v -0.437500 -0.031250 0.093750
v -0.250000 -0.562500 -0.093750
v -0.250000 -0.281250 -0.093750
v -0.250000 -0.562500 0.093750
v -0.250000 -0.281250 0.093750
v -0.437500 -0.562500 -0.093750
v -0.437500 -0.281250 -0.093750
v -0.437500 -0.562500 0.093750
v -0.437500 -0.281250 0.093750
v 0.250000 -0.281250 -0.093750
v 0.250000 -0.281250 0.093750
v 0.250000 -0.031250 -0.093750
v 0.437500 -0.281250 -0.093750
v 0.437500 -0.281250 0.093750
v 0.437500 -0.031250 -0.093750
v 0.437500 -0.031250 0.093750
v 0.250000 -0.031250 0.093750
v 0.250000 -0.562500 -0.093750
v 0.250000 -0.562500 0.093750
v 0.250000 -0.281250 -0.093750
v 0.437500 -0.562500 -0.093750
v 0.437500 -0.562500 0.093750
v 0.437500 -0.281250 -0.093750
v 0.437500 -0.281250 0.093750
v 0.250000 -0.281250 0.093750
v -0.015625 -0.625000 -0.093750
v -0.015625 -0.437500 -0.093750
v -0.015625 -0.625000 0.093750
v -0.015625 -0.437500 0.093750
v -0.234375 -0.625000 -0.093750
v -0.234375 -0.437500 -0.093750
v -0.234375 -0.625000 0.093750
v -0.234375 -0.437500 0.093750
v -0.015625 -0.625000 -0.093750
v -0.015625 -0.625000 0.093750
v -0.234375 -0.625000 -0.093750
v -0.234375 -0.625000 0.093750
v -0.015625 -0.875000 0.093750
v -0.015625 -0.875000 -0.093750
v -0.015625 -0.781250 0.093750
v -0.234375 -0.875000 0.093750
v -0.234375 -0.781250 0.093750
v -0.234375 -0.875000 -0.093750
v -0.234375 -0.781250 -0.093750
v -0.015625 -0.781250 -0.093750
v -0.234375 -0.781250 -0.156250
v -0.234375 -0.875000 -0.156250
v -0.015625 -0.875000 -0.156250
v -0.015625 -0.781250 -0.156250
v 0.015625 -0.625000 -0.093750
v 0.015625 -0.625000 0.093750
v 0.015625 -0.437500 -0.093750
v 0.234375 -0.625000 -0.093750
v 0.234375 -0.625000 0.093750
v 0.234375 -0.437500 -0.093750
v 0.234375 -0.437500 0.093750
v 0.015625 -0.437500 0.093750
v 0.015625 -0.625000 -0.093750
v 0.015625 -0.625000 0.093750
v 0.234375 -0.625000 -0.093750
v 0.015625 -0.781250 -0.093750
v 0.015625 -0.875000 -0.093750
v 0.234375 -0.781250 -0.093750
v 0.015625 -0.781250 0.093750
v 0.015625 -0.781250 -0.156250
v 0.015625 -0.875000 -0.156250
v 0.234375 -0.781250 -0.156250
v 0.234375 -0.875000 -0.156250
v 0.234375 -0.875000 -0.093750
v 0.234375 -0.875000 0.093750
v 0.015625 -0.875000 0.093750
v 0.234375 -0.781250 0.093750
v 0.234375 -0.625000 0.093750
vn -0.0000 1.0000 -0.0000
vn -1.0000 -0.0000 -0.0000
vn -0.0000 -0.0000 -1.0000
vn -0.0000 -1.0000 -0.0000
vn 1.0000 -0.0000 -0.0000
vn -0.0000 -0.0000 1.0000
vt 0.500000 0.687500
vt 0.500000 0.562500
vt 0.750000 0.562500
vt 0.750000 0.687500
vt 0.625000 0.281250
vt 0.625000 0.500000
vt 0.500000 0.500000
vt 0.500000 0.281250
vt 0.250000 0.281250
vt 0.250000 0.500000
vt 0.625000 0.296875
vt 0.500000 0.296875
vt 0.000000 0.281250
vt 0.250000 0.281250
vt 0.250000 0.500000
vt 0.000000 0.500000
vt 1.000000 0.140625
vt 1.000000 0.265625
vt 0.906250 0.265625
vt 0.906250 0.140625
vt 0.812500 0.265625
vt 0.812500 0.140625
vt 0.718750 0.265625
vt 0.718750 0.140625
vt 0.625000 0.265625
vt 0.625000 0.140625
vt 0.625000 0.140625
vt 0.718750 0.140625
vt 0.718750 0.125000
vt 0.625000 0.125000
vt 0.718750 0.359375
vt 0.625000 0.359375
vt 1.000000 0.000000
vt 0.906250 0.000000
vt 0.812500 0.000000
vt 0.718750 0.000000
vt 0.625000 0.000000
vt 0.531250 0.000000
vt 0.625000 0.093750
vt 0.531250 0.093750
vt 0.859375 0.906250
vt 0.859375 1.000000
vt 0.953125 1.000000
vt 0.953125 0.906250
vt 0.968750 0.687500
vt 0.968750 0.781250
vt 0.859375 0.781250
vt 0.859375 0.687500
vt 0.750000 1.000000
vt 0.750000 0.906250
vt 0.859375 0.921875
vt 0.750000 0.921875
vt 0.750000 0.984375
vt 0.859375 0.984375
vt 0.859375 0.828125
vt 0.953125 0.828125
vt 0.859375 0.750000
vt 0.859375 0.671875
vt 0.750000 0.671875
vt 0.750000 0.750000
vt 0.750000 0.890625
vt 0.859375 0.890625
vt 0.750000 0.781250
vt 0.859375 0.796875
vt 0.750000 0.796875
vt 0.875000 0.781250
vt 0.875000 0.828125
vt 0.953125 0.781250
vt 0.750000 0.828125
vt 0.750000 0.812500
vt 0.859375 0.812500
vt 0.937500 0.828125
vt 0.937500 0.781250
s 0
f 8/1/1 6/2/1 2/3/1 4/4/1
f 3/5/2 4/6/2 2/7/2 1/8/2
f 5/9/3 1/8/3 2/7/3 6/10/3
f 1/11/4 5/12/4 7/8/4 3/5/4
f 7/8/5 5/5/5 6/6/5 8/7/5
f 3/13/6 7/14/6 8/15/6 4/16/6
f 9/17/5 10/18/5 12/19/5 11/20/5
f 11/20/6 12/19/6 16/21/6 15/22/6
f 15/22/2 16/21/2 14/23/2 13/24/2
f 13/24/3 14/23/3 10/25/3 9/26/3
f 11/27/4 15/28/4 13/29/4 9/30/4
f 16/31/1 12/32/1 10/25/1 14/23/1
f 17/33/5 18/17/5 20/20/5 19/34/5
f 19/34/6 20/20/6 24/22/6 23/35/6
f 23/35/2 24/22/2 22/24/2 21/36/2
f 21/36/3 22/24/3 18/26/3 17/37/3
f 19/38/4 23/37/4 21/39/4 17/40/4
f 24/28/1 20/27/1 18/30/1 22/29/1
f 26/28/4 25/29/4 28/30/4 29/27/4
f 25/17/2 26/20/2 32/19/2 27/18/2
f 28/24/3 25/26/3 27/25/3 30/23/3
f 29/22/5 28/24/5 30/23/5 31/21/5
f 31/31/1 30/23/1 27/25/1 32/32/1
f 26/20/6 29/22/6 31/21/6 32/19/6
f 34/38/4 33/40/4 36/39/4 37/37/4
f 33/33/2 34/34/2 40/20/2 35/17/2
f 36/36/3 33/37/3 35/26/3 38/24/3
f 37/35/5 36/36/5 38/24/5 39/22/5
f 39/27/1 38/30/1 35/29/1 40/28/1
f 34/34/6 37/35/6 39/22/6 40/20/6
f 41/41/5 42/42/5 44/43/5 43/44/5
f 43/45/6 44/46/6 48/47/6 47/48/6
f 47/44/2 48/43/2 46/42/2 45/41/2
f 45/41/3 46/42/3 42/49/3 41/50/3
f 43/50/4 47/41/4 45/51/4 41/52/4
f 48/42/1 44/49/1 42/53/1 46/54/1
f 60/55/5 49/41/5 50/44/5 55/56/5
f 55/57/6 50/58/6 52/59/6 57/60/6
f 57/56/2 52/44/2 51/41/2 59/55/2
f 52/41/1 50/50/1 49/61/1 51/62/1
f 53/63/4 56/47/4 58/64/4 54/65/4
f 58/66/2 59/67/2 61/55/2 62/47/2
f 56/68/2 57/56/2 59/55/2 58/47/2
f 53/64/6 55/57/6 57/60/6 56/65/6
f 54/47/5 60/55/5 55/56/5 53/68/5
f 62/47/3 61/55/3 64/69/3 63/63/3
f 59/55/1 60/69/1 64/70/1 61/71/1
f 60/72/5 54/73/5 63/68/5 64/56/5
f 54/65/4 58/64/4 62/47/4 63/63/4
f 59/55/3 51/41/3 49/50/3 60/69/3
f 66/41/4 65/51/4 68/52/4 69/50/4
f 65/41/2 66/44/2 72/43/2 67/42/2
f 68/41/3 65/50/3 67/49/3 70/42/3
f 69/44/5 68/41/5 70/42/5 71/43/5
f 71/49/1 70/53/1 67/54/1 72/42/1
f 66/45/6 69/48/6 71/47/6 72/46/6
f 88/50/1 75/61/1 73/62/1 74/41/1
f 76/55/2 79/56/2 74/44/2 73/41/2
f 78/55/3 76/69/3 73/50/3 75/41/3
f 76/67/2 80/55/2 81/47/2 77/66/2
f 77/47/2 86/68/2 79/56/2 76/55/2
f 78/69/1 82/70/1 80/71/1 76/55/1
f 83/47/3 81/63/3 80/69/3 82/55/3
f 84/73/5 83/68/5 82/56/5 78/72/5
f 77/65/4 81/63/4 83/47/4 84/64/4
f 85/68/5 84/47/5 78/55/5 87/56/5
f 86/63/4 77/65/4 84/64/4 85/47/4
f 86/64/6 85/65/6 87/60/6 79/57/6
f 87/56/5 78/55/5 75/41/5 88/44/5
f 79/57/6 87/60/6 88/59/6 74/58/6
