# Blender 4.3.2
# www.blender.org
o Tank_Idle,Default
v -0.125000 -0.593750 0.125000
v -0.125000 -0.062500 0.125000
v -0.125000 -0.593750 0.375000
v -0.125000 -0.062500 0.375000
v 0.125000 -0.593750 0.125000
v 0.125000 -0.062500 0.125000
v 0.125000 -0.593750 0.375000
v 0.125000 -0.062500 0.375000
v -0.093750 -0.062500 0.343750
v -0.093750 -0.062500 0.156250
v 0.093750 -0.062500 0.343750
v 0.093750 -0.062500 0.156250
v -0.093750 -0.031250 0.343750
v 0.093750 -0.031250 0.156250
v -0.093750 -0.031250 0.156250
v 0.093750 -0.031250 0.343750
v -0.093750 -0.593750 0.156250
v -0.093750 -0.593750 0.343750
v 0.093750 -0.593750 0.343750
v 0.093750 -0.593750 0.156250
v -0.093750 -0.625000 0.156250
v -0.093750 -0.625000 0.343750
v 0.093750 -0.625000 0.343750
v 0.093750 -0.625000 0.156250
vn -1.0000 -0.0000 -0.0000
vn -0.0000 1.0000 -0.0000
vn -0.0000 -0.0000 -1.0000
vn -0.0000 -0.0000 1.0000
vn 1.0000 -0.0000 -0.0000
vn -0.0000 -1.0000 -0.0000
vt 1.000000 0.265625
vt 1.000000 0.531250
vt 0.875000 0.531250
vt 0.875000 0.265625
vt 1.000000 0.656250
vt 0.875000 0.656250
vt 0.890625 0.640625
vt 0.984375 0.640625
vt 0.875000 0.531250
vt 0.890625 0.546875
vt 0.875000 0.640625
vt 0.875000 0.546875
vt 1.000000 0.531250
vt 0.984375 0.546875
vt 1.000000 0.546875
vt 1.000000 0.640625
vt 0.890625 0.531250
vt 0.984375 0.531250
vt 0.984375 0.656250
vt 0.890625 0.656250
vt 0.875000 0.640625
vt 0.875000 0.546875
s 0
f 3/1/1 4/2/1 2/3/1 1/4/1
f 4/5/2 8/6/2 11/7/2 9/8/2
f 5/4/3 1/1/3 2/2/3 6/3/3
f 3/4/4 7/1/4 8/2/4 4/3/4
f 7/4/5 5/1/5 6/2/5 8/3/5
f 5/9/6 7/6/6 19/7/6 20/10/6
f 11/11/5 12/12/5 14/10/5 16/7/5
f 8/6/2 6/9/2 12/10/2 11/7/2
f 2/13/2 4/5/2 9/8/2 10/14/2
f 6/9/2 2/13/2 10/14/2 12/10/2
f 10/15/1 9/16/1 13/8/1 15/14/1
f 12/17/3 10/18/3 15/14/3 14/10/3
f 9/19/4 11/20/4 16/7/4 13/8/4
f 16/7/2 14/10/2 15/14/2 13/8/2
f 20/10/5 19/7/5 23/21/5 24/22/5
f 3/5/6 1/13/6 17/14/6 18/8/6
f 1/13/6 5/9/6 20/10/6 17/14/6
f 7/6/6 3/5/6 18/8/6 19/7/6
f 21/14/6 24/10/6 23/7/6 22/8/6
f 18/8/1 17/14/1 21/15/1 22/16/1
f 17/14/3 20/10/3 24/17/3 21/18/3
f 19/7/4 18/8/4 22/19/4 23/20/4
