# Blender 4.3.2
# www.blender.org
o Helmet_Closed
v -0.250000 -0.000000 0.250000
v 0.250000 -0.000000 0.250000
v 0.250000 0.500000 0.250000
v -0.250000 0.500000 0.250000
v -0.250000 0.093750 -0.250000
v -0.250000 -0.000000 -0.250000
v 0.250000 -0.000000 -0.250000
v 0.250000 0.093750 -0.250000
v -0.218750 0.093750 0.000000
v -0.250000 0.093750 0.000000
v 0.250000 0.500000 0.000000
v -0.250000 0.500000 0.000000
v 0.250000 0.093750 0.000000
v 0.218750 0.093750 0.000000
v -0.218750 0.468750 -0.218750
v 0.218750 0.468750 -0.218750
v -0.218750 0.093750 -0.218750
v 0.218750 0.093750 -0.218750
v 0.218750 0.468750 0.000000
v -0.218750 0.468750 0.000000
v -0.250000 0.093750 0.000000
v 0.250000 0.093750 0.000000
v -0.250000 0.500000 -0.250000
v 0.250000 0.500000 -0.250000
v -0.250000 0.093750 -0.250000
v 0.250000 0.093750 -0.250000
v 0.250000 0.500000 -0.000000
v -0.250000 0.500000 -0.000000
vn -0.0000 -0.0000 -1.0000
vn -0.0000 1.0000 -0.0000
vn -1.0000 -0.0000 -0.0000
vn 1.0000 -0.0000 -0.0000
vn -0.0000 -0.0000 1.0000
vn -0.0000 -1.0000 -0.0000
vt 0.484375 0.546875
vt 0.484375 0.734375
vt 0.265625 0.734375
vt 0.265625 0.546875
vt 0.250000 0.750000
vt 0.265625 0.765625
vt 0.265625 0.875000
vt 0.250000 0.875000
vt 0.500000 0.500000
vt 0.500000 0.546875
vt 0.250000 0.546875
vt 0.250000 0.500000
vt 0.250000 1.000000
vt 0.125000 1.000000
vt 0.125000 0.796875
vt 0.000000 0.796875
vt 0.000000 0.750000
vt 0.125000 0.546875
vt 0.125000 0.750000
vt 0.000000 0.500000
vt 0.750000 0.750000
vt 0.750000 1.000000
vt 0.500000 1.000000
vt 0.500000 0.750000
vt 0.500000 0.875000
vt 0.750000 0.500000
vt 0.234375 0.546875
vt 0.234375 0.734375
vt 0.125000 0.734375
vt 0.484375 0.875000
vt 0.484375 0.765625
vt 0.125000 0.984375
vt 0.015625 0.984375
vt 0.015625 0.796875
vt 0.250000 0.078125
vt 0.250000 0.281250
vt 0.000000 0.281250
vt 0.000000 0.078125
vt 0.375000 0.078125
vt 0.375000 0.281250
vt 0.375000 0.031250
vt 0.500000 0.031250
vt 0.500000 0.281250
s 0
f 17/1/1 15/2/1 16/3/1 18/4/1
f 8/5/2 18/6/2 14/7/2 13/8/2
f 6/9/1 5/10/1 8/11/1 7/12/1
f 1/5/3 4/13/3 12/14/3 10/15/3 5/16/3 6/17/3
f 13/18/4 11/19/4 3/17/4 2/20/4 7/12/4 8/11/4
f 2/21/5 3/22/5 4/23/5 1/24/5
f 10/10/1 12/24/1 20/2/1 9/1/1
f 3/13/2 11/8/2 12/25/2 4/23/2
f 1/26/6 6/21/6 7/24/6 2/9/6
f 18/27/4 16/28/4 19/29/4 14/18/4
f 20/30/2 19/7/2 16/6/2 15/31/2
f 9/15/3 20/32/3 15/33/3 17/34/3
f 17/31/2 5/24/2 10/25/2 9/30/2
f 18/6/2 8/5/2 5/24/2 17/31/2
f 20/2/1 12/24/1 11/5/1 19/3/1
f 19/3/1 11/5/1 13/11/1 14/4/1
f 25/35/1 23/36/1 24/37/1 26/38/1
f 26/39/4 24/40/4 27/36/4 22/35/4
f 28/40/2 27/41/2 24/42/2 23/43/2
f 21/35/3 28/36/3 23/40/3 25/39/3
